<?xml version="1.0" encoding="UTF-8" standalone="no"?>
<!-- Created with Inkscape (http://www.inkscape.org/) -->

<svg
   width="80.774734mm"
   height="74.303726mm"
   viewBox="0 0 80.774734 74.303726"
   version="1.1"
   id="svg5"
   inkscape:version="1.1 (c68e22c387, 2021-05-23)"
   sodipodi:docname="folder-svgrepo-com.svg"
   xmlns:inkscape="http://www.inkscape.org/namespaces/inkscape"
   xmlns:sodipodi="http://sodipodi.sourceforge.net/DTD/sodipodi-0.dtd"
   xmlns="http://www.w3.org/2000/svg"
   xmlns:svg="http://www.w3.org/2000/svg">
  <sodipodi:namedview
     id="namedview7"
     pagecolor="#ffffff"
     bordercolor="#666666"
     borderopacity="1.0"
     inkscape:pageshadow="2"
     inkscape:pageopacity="0.0"
     inkscape:pagecheckerboard="0"
     inkscape:document-units="mm"
     showgrid="false"
     inkscape:zoom="0.94867184"
     inkscape:cx="355.23348"
     inkscape:cy="150.73706"
     inkscape:window-width="1920"
     inkscape:window-height="1046"
     inkscape:window-x="-30720"
     inkscape:window-y="-32000"
     inkscape:window-maximized="0"
     inkscape:current-layer="layer1" />
  <defs
     id="defs2" />
  <g
     inkscape:label="Calque 1"
     inkscape:groupmode="layer"
     id="layer1"
     transform="translate(-67.195586,-56.086779)">
    <rect
       style="fill:#81f5ff;fill-opacity:1;stroke:#ffffff;stroke-width:0.165866;stroke-linecap:round;stroke-linejoin:bevel;stroke-miterlimit:4;stroke-dasharray:none;stroke-opacity:1;paint-order:markers fill stroke;stop-color:#000000"
       id="rect13675"
       width="80.608871"
       height="74.137863"
       x="67.278519"
       y="56.169712"
       rx="5.3612666"
       ry="4.930882"
       inkscape:export-filename="C:\Users\user\Desktop\landscape generator\icone\icon.png"
       inkscape:export-xdpi="95"
       inkscape:export-ydpi="95" />
    <path
       id="path4602"
       style="fill:#f5ff00;fill-opacity:1;stroke:none;stroke-width:8.64447;stroke-linecap:round;stroke-linejoin:bevel;stroke-opacity:1;paint-order:markers fill stroke;stop-color:#000000"
       d="M 94.985431,57.252587 A 19.166723,19.166723 0 0 0 77.36632,68.906841 c 0.161238,-0.05375 0.322355,-0.106325 0.479479,-0.143608 0.206867,-0.05171 0.391198,-0.08761 0.553245,-0.108299 0.162047,-0.02069 0.324496,-0.03139 0.486543,-0.03139 0.417181,0 0.749172,0.05524 0.997412,0.165582 0.251687,0.110331 0.440112,0.289308 0.56423,0.53755 0.124129,0.248238 0.185986,0.591716 0.185986,1.029586 v 2.016797 c 0,0.227553 0.0054,0.403227 0.01569,0.527349 0.01044,0.124115 0.0256,0.217307 0.04629,0.279367 0.02413,0.05861 0.05342,0.107255 0.08789,0.14518 0.03449,0.03449 0.07572,0.06376 0.123996,0.08789 0.05171,0.02069 0.14695,0.04791 0.284861,0.08241 v 0.341365 h -1.924191 l 0.04709,-0.677237 -0.07769,-0.02587 c -0.282719,0.275821 -0.55898,0.475426 -0.827907,0.599543 -0.265479,0.124115 -0.548352,0.186772 -0.848311,0.186772 -0.296509,0 -0.55467,-0.05398 -0.775328,-0.160873 -0.217211,-0.11033 -0.382967,-0.262078 -0.496743,-0.455155 -0.06575,-0.115047 -0.109183,-0.241596 -0.135763,-0.377461 a 19.166723,19.166723 0 0 0 -0.334301,3.492904 19.166723,19.166723 0 0 0 1.534178,7.48255 c 0.04992,-0.293735 0.132386,-0.563609 0.255042,-0.802795 0.210316,-0.406841 0.506413,-0.713639 0.889118,-0.920505 0.382703,-0.210317 0.828028,-0.315469 1.334851,-0.315469 0.313749,0 0.58718,0.03669 0.821629,0.109079 0.237898,0.0724 0.441591,0.173469 0.610534,0.304484 0.16894,0.127564 0.308723,0.28262 0.419054,0.465354 0.131013,0.217211 0.229556,0.465453 0.295064,0.74472 0.06896,0.286168 0.104844,0.632952 0.108299,1.03979 h -3.278668 c 0.0034,0.62405 0.113165,1.084643 0.330377,1.381151 0.220658,0.293065 0.555479,0.439461 1.003691,0.439461 0.262032,0 0.498311,-0.04863 0.708625,-0.145177 0.210315,-0.09999 0.437936,-0.273615 0.682731,-0.521857 l 0.419051,0.45515 c -0.351672,0.372363 -0.700501,0.635873 -1.045279,0.791025 -0.34478,0.155151 -0.74068,0.233069 -1.188891,0.233069 -0.230185,0 -0.442719,-0.02058 -0.640353,-0.0565 a 19.166723,19.166723 0 0 0 15.907583,8.483103 19.166723,19.166723 0 0 0 15.906016,-8.479961 c -0.25153,-0.04326 -0.48358,-0.112063 -0.69137,-0.211096 -0.36546,-0.179287 -0.65164,-0.463422 -0.85851,-0.853021 -0.20686,-0.393047 -0.31076,-0.89158 -0.31076,-1.494939 0,-0.462006 0.0639,-0.861208 0.19148,-1.199094 0.12757,-0.337881 0.30529,-0.617449 0.53284,-0.838109 0.22756,-0.220654 0.49768,-0.383106 0.81143,-0.486539 0.3172,-0.106888 0.66067,-0.160089 1.02959,-0.160089 0.67689,0 1.21599,0.14822 1.62285,0.438673 a 19.166723,19.166723 0 0 0 0.93306,-5.882454 19.166723,19.166723 0 0 0 -0.18049,-2.613206 c -0.25609,0.0729 -0.53895,0.113796 -0.85537,0.113796 -0.35512,0 -0.70317,-0.04533 -1.0445,-0.134977 v 0.977791 c 0,0.258584 0.014,0.440872 0.0416,0.547752 0.0276,0.106887 0.0754,0.191418 0.1444,0.253475 0.0724,0.06206 0.19896,0.114002 0.37824,0.155379 v 0.341365 h -2.57553 v -0.341365 c 0.16205,-0.04827 0.27381,-0.101471 0.33587,-0.160086 0.0655,-0.05861 0.11211,-0.141882 0.13969,-0.248768 0.0276,-0.103433 0.0416,-0.285721 0.0416,-0.547752 V 70.23702 c 0,-0.244791 -0.004,-0.418419 -0.011,-0.521856 -0.004,-0.103433 -0.0154,-0.191268 -0.0361,-0.263674 -0.0172,-0.07241 -0.0432,-0.131747 -0.0777,-0.176568 -0.0345,-0.04827 -0.0856,-0.08951 -0.1546,-0.123982 -0.0655,-0.03449 -0.16405,-0.06502 -0.29507,-0.09261 v -0.351567 l 1.43295,-0.04159 h 0.63565 l -0.0777,0.749434 0.062,0.01571 c 0.20403,-0.196913 0.39784,-0.352234 0.58228,-0.472416 A 19.166723,19.166723 0 0 0 94.985427,57.25263 Z m -2.317355,9.178385 h 0.645846 v 5.895792 c 0,0.26203 0.0041,0.452977 0.0109,0.573651 0.01044,0.120679 0.03097,0.217167 0.06199,0.28957 0.03102,0.07241 0.08093,0.133012 0.149888,0.181275 0.06896,0.04482 0.184027,0.0848 0.346073,0.119282 v 0.346073 l -1.406264,0.04629 h -0.626223 l 0.04709,-0.744721 -0.07769,-0.0046 c -0.248242,0.251687 -0.510495,0.44594 -0.786315,0.583849 -0.272378,0.134463 -0.534626,0.202466 -0.786314,0.202466 -0.627501,0 -1.098011,-0.215655 -1.411757,-0.646632 -0.310303,-0.430972 -0.465358,-1.079204 -0.465358,-1.944598 0,-0.586122 0.09525,-1.079304 0.284865,-1.479246 0.189629,-0.403393 0.470455,-0.708146 0.842814,-0.915016 0.375811,-0.206865 0.826961,-0.310755 1.354473,-0.310755 0.1517,0 0.300141,0.01067 0.44495,0.03139 0.148254,0.01723 0.322672,0.05313 0.522642,0.108299 v -0.47088 c 0,-0.368916 -0.0054,-0.629119 -0.01571,-0.780823 -0.01044,-0.155151 -0.03303,-0.272268 -0.06749,-0.351565 -0.03102,-0.08274 -0.07889,-0.146658 -0.144394,-0.191478 -0.0655,-0.04482 -0.184667,-0.08402 -0.357059,-0.118496 v -0.346857 z m -7.121567,2.192578 c 0.282717,0 0.516951,0.04125 0.703132,0.123983 0.186179,0.0793 0.335881,0.196416 0.449658,0.351566 0.117231,0.155153 0.200496,0.344837 0.248765,0.568944 0.05172,0.224106 0.07769,0.48431 0.07769,0.780822 v 1.892804 c 0,0.151704 0.0013,0.294792 0.0046,0.429255 0.0069,0.131014 0.0209,0.236168 0.04159,0.31547 0.02069,0.07929 0.04791,0.145255 0.08241,0.196969 0.03793,0.04827 0.08988,0.08951 0.155382,0.123996 0.06551,0.03449 0.144689,0.06376 0.237779,0.0879 v 0.341365 h -2.50804 v -0.341365 c 0.158598,-0.03793 0.269102,-0.09319 0.331163,-0.165581 0.06206,-0.07585 0.103295,-0.175656 0.123995,-0.299776 0.02414,-0.127566 0.0361,-0.355185 0.0361,-0.682729 V 70.96602 c 0,-0.24479 -0.0054,-0.444391 -0.01569,-0.599542 -0.01044,-0.158599 -0.02766,-0.287681 -0.0518,-0.387667 -0.02069,-0.09999 -0.05122,-0.183257 -0.0926,-0.248765 -0.03792,-0.06896 -0.08123,-0.123422 -0.129483,-0.164793 -0.04827,-0.04483 -0.103525,-0.07819 -0.16558,-0.09888 -0.06206,-0.02069 -0.141241,-0.03062 -0.237779,-0.03062 -0.131015,0 -0.267493,0.04125 -0.408852,0.123996 -0.14136,0.0793 -0.259739,0.191067 -0.356276,0.335871 -0.09654,0.141362 -0.145177,0.293107 -0.145177,0.455157 v 1.990896 c 0,0.32754 0.01067,0.555161 0.03139,0.682729 0.02069,0.127564 0.06192,0.229415 0.123996,0.305268 0.06552,0.07241 0.179317,0.127658 0.341364,0.165582 v 0.341364 H 81.926418 V 73.49525 c 0.165494,-0.04483 0.279305,-0.103387 0.341365,-0.175785 0.0655,-0.0724 0.108012,-0.170945 0.128696,-0.295066 0.02413,-0.124116 0.03608,-0.349693 0.03608,-0.677238 v -2.125872 c 0,-0.255138 -0.0045,-0.442777 -0.01492,-0.563446 -0.0068,-0.124115 -0.02752,-0.222664 -0.06199,-0.295067 -0.03103,-0.07584 -0.08172,-0.135668 -0.150671,-0.180492 -0.0655,-0.04827 -0.18058,-0.08951 -0.346073,-0.123982 v -0.351565 l 1.417252,-0.04159 h 0.651337 l -0.07769,0.744725 0.06198,0.01571 c 0.213762,-0.189628 0.402186,-0.33807 0.564232,-0.44495 0.162044,-0.110331 0.330323,-0.196906 0.506161,-0.258967 0.179284,-0.06551 0.367707,-0.0981 0.564232,-0.0981 z m 11.356839,0 c 0.251687,0 0.497885,0.01067 0.739233,0.03139 0.241341,0.02069 0.553496,0.06523 0.9362,0.134193 v 1.205372 h -0.682729 c -0.0793,-0.22066 -0.167136,-0.39177 -0.263673,-0.512442 -0.09309,-0.120666 -0.1962,-0.20316 -0.309977,-0.247979 -0.113785,-0.04827 -0.250255,-0.07299 -0.408855,-0.07299 -0.227552,0 -0.408579,0.05195 -0.543041,0.155379 -0.134464,0.103433 -0.20168,0.248568 -0.20168,0.434749 0,0.131013 0.02394,0.242782 0.07221,0.335868 0.04827,0.09309 0.134844,0.184238 0.258967,0.27388 0.124116,0.08619 0.363704,0.204093 0.718825,0.35235 0.324091,0.134463 0.587606,0.275507 0.791025,0.423764 0.203417,0.144804 0.358472,0.31387 0.465351,0.506942 0.106888,0.189628 0.160872,0.411898 0.160872,0.667035 0,0.279272 -0.05195,0.520901 -0.155379,0.724323 -0.103434,0.19997 -0.248567,0.364941 -0.434748,0.495957 -0.186177,0.131013 -0.40971,0.229559 -0.67174,0.295066 -0.258585,0.06206 -0.544764,0.09338 -0.858514,0.09338 -0.568886,0 -1.201844,-0.08124 -1.898299,-0.243272 v -1.235969 h 0.692931 c 0.08274,0.313745 0.213873,0.550026 0.393159,0.708625 0.179283,0.155152 0.41887,0.232282 0.718825,0.232282 0.258584,0 0.453622,-0.05856 0.584637,-0.175784 0.134463,-0.117218 0.201678,-0.287543 0.201678,-0.51165 0,-0.141361 -0.03134,-0.26257 -0.09338,-0.362554 -0.05861,-0.09999 -0.158414,-0.194435 -0.299776,-0.284078 -0.13791,-0.09309 -0.375448,-0.213511 -0.713333,-0.361769 -0.18963,-0.08273 -0.369394,-0.174673 -0.538335,-0.274658 -0.165493,-0.09999 -0.309844,-0.211752 -0.433965,-0.335873 -0.124115,-0.127563 -0.222659,-0.269395 -0.295061,-0.424546 -0.07241,-0.155152 -0.10908,-0.327521 -0.10908,-0.517149 0,-0.310302 0.08989,-0.579164 0.269166,-0.806718 0.179288,-0.227553 0.434927,-0.401183 0.765913,-0.521856 0.334436,-0.12068 0.715065,-0.181276 1.142589,-0.181276 z m 5.264862,0 c 0.27927,0 0.55679,0.02061 0.83261,0.06199 0.27927,0.03793 0.53287,0.09113 0.76042,0.160087 v 1.246964 h -1.02409 c -0.0517,-0.324093 -0.12964,-0.560372 -0.23307,-0.708628 -0.10343,-0.148253 -0.25188,-0.222865 -0.44495,-0.222865 -0.12756,0 -0.24925,0.03341 -0.36648,0.09888 -0.11378,0.06206 -0.21562,0.171783 -0.30526,0.330382 -0.0862,0.155147 -0.15546,0.365454 -0.20718,0.630933 -0.0517,0.262031 -0.0777,0.594806 -0.0777,0.998195 0,0.403392 0.0379,0.744825 0.11379,1.024092 0.0759,0.275827 0.19832,0.489439 0.36726,0.641141 0.16894,0.148253 0.39121,0.222865 0.66704,0.222865 0.19997,0 0.38839,-0.0433 0.56423,-0.129482 0.17928,-0.08621 0.38959,-0.241252 0.63093,-0.465358 l 0.39787,0.481051 c -0.33788,0.330986 -0.6653,0.568527 -0.9825,0.713332 -0.31375,0.141359 -0.65644,0.212669 -1.02881,0.212669 -0.74816,0 -1.31926,-0.218963 -1.71231,-0.656835 -0.393048,-0.441313 -0.589343,-1.080891 -0.589343,-1.918701 0,-0.565437 0.106417,-1.053265 0.320175,-1.463553 0.217208,-0.41373 0.528108,-0.725885 0.931488,-0.936198 0.4034,-0.213763 0.86525,-0.320962 1.38587,-0.320962 z m 4.9282,0 c 0.41718,0 0.74996,0.05526 0.9982,0.165582 0.25169,0.11033 0.44011,0.28931 0.56423,0.53755 0.12412,0.248239 0.18599,0.591717 0.18599,1.029588 v 2.016795 c 0,0.227554 0.005,0.403229 0.0157,0.52735 0.0104,0.124115 0.0256,0.217308 0.0463,0.279369 0.0241,0.05861 0.0534,0.107255 0.0879,0.145177 0.0345,0.03449 0.0757,0.06377 0.12399,0.0879 0.0517,0.02069 0.14695,0.04791 0.28486,0.08241 v 0.341365 h -1.92419 l 0.0463,-0.677236 -0.0769,-0.02588 c -0.28272,0.275821 -0.55898,0.475427 -0.82791,0.599543 -0.26548,0.124115 -0.54835,0.186773 -0.84831,0.186773 -0.29651,0 -0.55467,-0.05398 -0.77533,-0.160874 -0.21721,-0.11033 -0.38297,-0.262078 -0.49674,-0.455154 -0.11033,-0.193077 -0.16558,-0.415343 -0.16558,-0.667032 0,-0.506826 0.24824,-0.904771 0.74472,-1.194384 0.49993,-0.293061 1.25662,-0.477395 2.27027,-0.553245 V 70.39789 c 0,-0.320644 -0.0359,-0.567626 -0.1083,-0.740013 -0.0724,-0.17584 -0.16559,-0.298308 -0.27937,-0.367264 -0.11378,-0.0724 -0.25026,-0.108299 -0.40885,-0.108299 -0.1586,0 -0.29634,0.02724 -0.41357,0.08241 -0.11377,0.05515 -0.21688,0.16032 -0.30997,0.315471 -0.0931,0.1517 -0.16235,0.364053 -0.20717,0.636427 h -0.97701 v -0.941694 c 0.3172,-0.141359 0.58071,-0.249818 0.79102,-0.325672 0.21032,-0.07584 0.41732,-0.137714 0.62074,-0.185985 0.20686,-0.05171 0.3912,-0.08762 0.55324,-0.108299 0.16205,-0.02069 0.32371,-0.03137 0.48576,-0.03137 z m -16.14065,0.537552 c -0.213763,0 -0.398096,0.07791 -0.553244,0.233069 -0.151704,0.151702 -0.26756,0.372709 -0.346857,0.662323 -0.07584,0.289615 -0.113004,0.632308 -0.113004,1.028803 0,0.679214 0.07383,1.186402 0.222085,1.520839 0.148257,0.334433 0.379181,0.50145 0.692932,0.50145 0.148251,0 0.294647,-0.03667 0.439458,-0.109079 0.14825,-0.07585 0.272766,-0.18966 0.372751,-0.341364 0.09999,-0.155152 0.149888,-0.332088 0.149888,-0.532058 v -1.722518 c 0,-0.420628 -0.07053,-0.732779 -0.211879,-0.936201 -0.141363,-0.203419 -0.359065,-0.305264 -0.652126,-0.305264 z m -12.613217,0.02117 c -0.1586,0 -0.297123,0.02723 -0.414346,0.08241 -0.113784,0.05518 -0.216885,0.160319 -0.309976,0.315469 -0.09309,0.1517 -0.16235,0.364054 -0.207171,0.636426 h -0.546968 a 19.166723,19.166723 0 0 0 -0.488113,1.649537 c 0.121,-0.160285 0.283167,-0.301921 0.492036,-0.423762 0.49993,-0.293064 1.25662,-0.477396 2.27027,-0.553246 v -0.491253 c 0,-0.320644 -0.0359,-0.567624 -0.108299,-0.740011 -0.0724,-0.17584 -0.165592,-0.298309 -0.279368,-0.367264 -0.113785,-0.07241 -0.249471,-0.108299 -0.408069,-0.108299 z m 34.499777,0.277011 c -0.0923,0.01892 -0.18407,0.04691 -0.27388,0.09495 -0.1448,0.0793 -0.26397,0.193113 -0.35706,0.341365 -0.0931,0.144808 -0.13968,0.308518 -0.13968,0.491252 v 1.753121 c 0,0.424077 0.0726,0.738276 0.21737,0.941695 0.14826,0.199972 0.37588,0.299772 0.68273,0.299772 0.3172,0 0.55883,-0.165755 0.72432,-0.496741 0.0324,-0.06416 0.0586,-0.138094 0.0847,-0.212668 a 19.166723,19.166723 0 0 0 -0.93856,-3.212746 z m -33.698552,1.935972 c -0.534406,0.01378 -0.931091,0.114382 -1.189675,0.300558 -0.255136,0.186183 -0.38217,0.45835 -0.38217,0.816921 0,0.213764 0.05856,0.377477 0.175781,0.491251 0.117231,0.11033 0.278893,0.165581 0.485758,0.165581 0.1586,0 0.309086,-0.04124 0.450446,-0.123982 0.141359,-0.0862 0.253124,-0.200007 0.33587,-0.341365 0.08275,-0.141361 0.123996,-0.291848 0.123996,-0.450446 z m 28.211612,0 c -0.53441,0.01378 -0.93109,0.114382 -1.18968,0.300558 -0.25513,0.186183 -0.38295,0.45835 -0.38295,0.816921 0,0.213764 0.0593,0.377477 0.17657,0.491251 0.11721,0.11033 0.27889,0.165581 0.48575,0.165581 0.1586,0 0.3083,-0.04124 0.44966,-0.123982 0.14136,-0.0862 0.25391,-0.200007 0.33666,-0.341365 0.0827,-0.141361 0.12399,-0.291848 0.12399,-0.450446 z m -1.42196,9.257646 h 1.23597 v 1.293262 h 1.47375 v 0.645846 h -1.47375 v 2.333047 c 0,0.389601 0.0173,0.67704 0.0518,0.863222 0.0379,0.186181 0.0998,0.323919 0.18599,0.413562 0.0862,0.08619 0.1926,0.129483 0.32017,0.129483 0.0965,0 0.18311,-0.0086 0.25897,-0.02591 0.0759,-0.01724 0.15503,-0.04778 0.23777,-0.09261 0.0862,-0.04481 0.17608,-0.108735 0.26917,-0.191479 l 0.32567,0.433966 c -0.3034,0.258583 -0.57888,0.441656 -0.82712,0.548536 -0.24824,0.103433 -0.51049,0.15538 -0.78631,0.15538 -0.51372,0 -0.89845,-0.138524 -1.15358,-0.414345 -0.25169,-0.279273 -0.37746,-0.699882 -0.37746,-1.261873 v -2.890999 h -0.64663 v -0.356276 c 0.21031,-0.03447 0.36537,-0.08643 0.46535,-0.155382 0.1,-0.06896 0.17791,-0.160096 0.23307,-0.273874 0.0552,-0.117218 0.0984,-0.26897 0.12948,-0.455152 0.0345,-0.186181 0.0605,-0.419152 0.0777,-0.698422 z M 86.513314,81.86298 c 0.28272,0 0.516953,0.04125 0.703135,0.123982 0.186179,0.0793 0.336667,0.196415 0.450441,0.351565 0.11723,0.155152 0.199714,0.344839 0.247981,0.568943 0.05172,0.224107 0.07769,0.485096 0.07769,0.781606 v 1.892808 c 0,0.151703 0.002,0.294793 0.0054,0.429257 0.0069,0.131014 0.02012,0.236166 0.0408,0.315465 0.02069,0.0793 0.0487,0.144471 0.0832,0.196188 0.03793,0.04827 0.08909,0.08951 0.154592,0.123982 0.0655,0.03449 0.145474,0.06377 0.238564,0.0879 v 0.341364 h -2.508833 v -0.341364 c 0.158599,-0.03793 0.269103,-0.09318 0.331163,-0.165583 0.06206,-0.07585 0.103296,-0.175654 0.123995,-0.299771 0.02413,-0.127565 0.0361,-0.355192 0.0361,-0.68273 v -1.380369 c 0,-0.244794 -0.0045,-0.44518 -0.01489,-0.60033 -0.01044,-0.158598 -0.02766,-0.287679 -0.0518,-0.387663 -0.02069,-0.09999 -0.052,-0.183255 -0.09338,-0.248768 -0.03793,-0.06896 -0.08123,-0.123422 -0.129482,-0.164793 -0.04827,-0.04483 -0.103525,-0.07821 -0.165581,-0.09888 -0.06206,-0.02069 -0.14124,-0.03062 -0.237778,-0.03062 -0.131014,0 -0.266708,0.04124 -0.408069,0.123995 -0.141358,0.07929 -0.260519,0.191063 -0.357058,0.33587 -0.09654,0.14136 -0.145178,0.293109 -0.145178,0.455154 v 1.991684 c 0,0.327539 0.01067,0.554374 0.03139,0.681942 0.02069,0.127564 0.06192,0.229418 0.123996,0.305268 0.06551,0.0724 0.179319,0.127657 0.341365,0.165582 v 0.341364 h -2.497846 v -0.341364 c 0.165493,-0.04483 0.279304,-0.103387 0.341366,-0.175784 0.0655,-0.07241 0.108804,-0.170945 0.129482,-0.295066 0.02412,-0.124115 0.03608,-0.349693 0.03608,-0.677233 v -2.125095 c 0,-0.255133 -0.0054,-0.44356 -0.01569,-0.564228 -0.0068,-0.124115 -0.02753,-0.221878 -0.06199,-0.29428 -0.03103,-0.07585 -0.08093,-0.136456 -0.149886,-0.18128 -0.0655,-0.04827 -0.181364,-0.08951 -0.346857,-0.123982 V 81.94615 l 1.417251,-0.04159 h 0.651339 l -0.07691,0.744726 0.06199,0.01571 c 0.213762,-0.189628 0.4014,-0.338069 0.563447,-0.444949 0.162045,-0.110331 0.331108,-0.196906 0.506946,-0.258967 0.179284,-0.06551 0.366923,-0.0981 0.563447,-0.0981 z m 5.332347,0 c 0.31375,0 0.587967,0.03667 0.822415,0.109079 0.237896,0.0724 0.440803,0.17347 0.609748,0.304486 0.16894,0.127564 0.308724,0.282618 0.419055,0.465352 0.131014,0.217212 0.229556,0.465453 0.295062,0.744721 0.06896,0.286168 0.104845,0.632952 0.108299,1.03979 h -3.278667 c 0.0036,0.624051 0.113956,1.084642 0.331161,1.381151 0.220659,0.293066 0.554696,0.439462 1.002907,0.439462 0.262034,0 0.49831,-0.04865 0.708626,-0.14518 0.210313,-0.09999 0.437934,-0.273614 0.68273,-0.521856 l 0.419054,0.455151 c -0.351675,0.372363 -0.700505,0.635873 -1.045284,0.791024 -0.344776,0.15515 -0.740676,0.23307 -1.188888,0.23307 -0.803335,0 -1.408277,-0.218963 -1.815118,-0.656835 -0.403389,-0.441314 -0.605822,-1.094899 -0.605822,-1.960289 0,-0.558546 0.103881,-1.039758 0.31076,-1.443151 0.210313,-0.406841 0.506411,-0.713638 0.889116,-0.920503 0.382704,-0.210317 0.828029,-0.31547 1.33485,-0.31547 z m 6.69702,0 c 0.210319,0 0.431324,0.02267 0.662327,0.06749 v 1.427452 h -0.936203 c -0.05861,-0.199972 -0.136532,-0.353764 -0.23307,-0.460645 -0.09309,-0.106864 -0.218864,-0.160077 -0.377462,-0.160077 -0.07585,0 -0.160383,0.02394 -0.253472,0.0722 -0.08964,0.04481 -0.174173,0.11079 -0.253474,0.196971 -0.07586,0.08273 -0.131108,0.168539 -0.165582,0.258181 -0.03102,0.08621 -0.05164,0.174031 -0.06199,0.263674 -0.01044,0.08964 -0.0149,0.224074 -0.0149,0.403362 v 1.650319 c 0,0.32754 0.01198,0.556422 0.03608,0.687438 0.02414,0.131014 0.072,0.234124 0.144392,0.309973 0.07241,0.07241 0.194873,0.124355 0.367264,0.15538 v 0.341366 h -2.549642 v -0.341366 c 0.165494,-0.04483 0.279304,-0.103376 0.341365,-0.175783 0.06551,-0.0724 0.108804,-0.170946 0.129482,-0.295066 0.02415,-0.124115 0.03607,-0.349694 0.03607,-0.677233 v -2.125089 c 0,-0.255132 -0.0054,-0.44356 -0.01571,-0.56423 -0.0069,-0.124116 -0.02753,-0.221876 -0.06199,-0.294278 -0.03103,-0.07585 -0.08093,-0.136456 -0.149884,-0.18128 -0.06551,-0.04827 -0.181364,-0.08951 -0.346862,-0.123982 v -0.351568 l 1.417254,-0.04159 H 96.9088 l -0.07298,0.780822 0.06748,0.01571 c 0.251689,-0.296512 0.510633,-0.510124 0.776112,-0.64114 0.265484,-0.131013 0.552924,-0.19697 0.863222,-0.19697 z m 3.697729,0 c 0.41718,0 0.74995,0.05524 0.99819,0.165581 0.25169,0.110331 0.43933,0.289309 0.56345,0.537552 0.12411,0.24824 0.18677,0.591715 0.18677,1.029585 v 2.016797 c 0,0.227554 0.004,0.40323 0.0149,0.52735 0.0104,0.124116 0.0264,0.217307 0.0471,0.279368 0.0242,0.05861 0.0534,0.107254 0.0879,0.145179 0.0345,0.03447 0.0757,0.06377 0.12398,0.08789 0.0517,0.02069 0.14617,0.04791 0.28408,0.08241 v 0.341365 h -1.92341 l 0.0463,-0.677238 -0.0777,-0.02587 c -0.28272,0.27582 -0.5582,0.475427 -0.82713,0.599547 -0.26548,0.124115 -0.54835,0.186768 -0.84831,0.186768 -0.29651,0 -0.55545,-0.05398 -0.77611,-0.160872 -0.21721,-0.11033 -0.382183,-0.262076 -0.495959,-0.455151 -0.11033,-0.193076 -0.165582,-0.415347 -0.165582,-0.667037 0,-0.506825 0.248242,-0.90477 0.744731,-1.194384 0.49992,-0.293061 1.25661,-0.477395 2.27026,-0.553243 v -0.491253 c 0,-0.320642 -0.0359,-0.567625 -0.10829,-0.740012 -0.0724,-0.175839 -0.1656,-0.298305 -0.27938,-0.367261 -0.11377,-0.0724 -0.25025,-0.108299 -0.40885,-0.108299 -0.1586,0 -0.29634,0.02724 -0.41356,0.08241 -0.11378,0.05518 -0.21689,0.160319 -0.30998,0.315467 -0.0931,0.151706 -0.16235,0.364054 -0.20717,0.636429 h -0.977804 v -0.940909 c 0.317194,-0.14136 0.581494,-0.250602 0.791814,-0.326452 0.21031,-0.07586 0.41652,-0.13772 0.61995,-0.185985 0.20686,-0.05171 0.39198,-0.08761 0.55403,-0.108299 0.16204,-0.02069 0.32371,-0.03139 0.48575,-0.03139 z m -22.491604,0.538336 c -0.265479,0 -0.477045,0.134434 -0.635643,0.40336 -0.155151,0.268926 -0.248339,0.656168 -0.279369,1.162992 h 1.721732 c -0.01379,-0.527509 -0.08226,-0.920102 -0.206389,-1.178684 -0.124115,-0.258587 -0.324508,-0.387668 -0.600331,-0.387668 z m 12.013672,0 c -0.265478,0 -0.477046,0.134434 -0.635644,0.40336 -0.155151,0.268926 -0.248338,0.656168 -0.279368,1.162992 h 1.72173 c -0.01378,-0.527509 -0.08226,-0.920102 -0.206387,-1.178684 -0.124116,-0.258587 -0.324505,-0.387668 -0.600331,-0.387668 z m 19.813262,0 c -0.23445,0 -0.42287,0.07382 -0.56424,0.222085 -0.14135,0.148253 -0.24446,0.370522 -0.30997,0.667032 -0.0655,0.296508 -0.0981,0.677922 -0.0981,1.143377 0,0.730927 0.0804,1.278575 0.24249,1.64404 0.10209,0.22331 0.23987,0.36959 0.40493,0.455154 a 19.166723,19.166723 0 0 0 1.28149,-2.43585 c -0.0309,-0.486892 -0.10869,-0.867941 -0.23307,-1.142589 -0.16205,-0.368914 -0.40289,-0.553248 -0.72354,-0.553248 z m -9.07637,2.234172 c -0.53441,0.01379 -0.93109,0.113589 -1.18967,0.299771 -0.25514,0.186182 -0.38296,0.458354 -0.38296,0.816925 0,0.21376 0.0586,0.377472 0.17578,0.491246 0.11722,0.11033 0.27968,0.165582 0.48654,0.165582 0.1586,0 0.3083,-0.04124 0.44966,-0.123982 0.14137,-0.0862 0.25313,-0.200007 0.33588,-0.341364 0.0828,-0.141357 0.12478,-0.291062 0.12478,-0.44966 z"
       inkscape:original-d="m 120.00391,229.57227 a 47.703358,47.703358 0 0 0 -43.851566,29.00585 c 0.4013,-0.13375 0.802298,-0.26462 1.193359,-0.35742 0.514864,-0.12871 0.973643,-0.21804 1.376953,-0.26953 0.40331,-0.0515 0.807628,-0.0781 1.210938,-0.0781 1.038309,0 1.864585,0.13751 2.482422,0.41211 0.626417,0.27459 1.095378,0.72005 1.404296,1.33789 0.308919,0.61783 0.462891,1.4727 0.462891,2.5625 v 5.01953 c 0,0.56635 0.01332,1.00358 0.03906,1.3125 0.02574,0.30892 0.06375,0.54085 0.115234,0.69531 0.06007,0.14588 0.132939,0.26694 0.21875,0.36133 0.08581,0.0858 0.188459,0.15868 0.308594,0.21875 0.128716,0.0515 0.365742,0.11927 0.708984,0.20508 v 0.84961 h -4.789062 l 0.117187,-1.68555 -0.193359,-0.0644 c -0.703648,0.68648 -1.391224,1.18327 -2.060547,1.49218 -0.660742,0.30892 -1.364776,0.46485 -2.111328,0.46485 -0.737972,0 -1.3805,-0.13438 -1.929688,-0.40039 -0.540607,-0.2746 -0.953153,-0.65228 -1.236328,-1.13282 -0.16363,-0.28635 -0.271767,-0.6013 -0.337891,-0.93945 a 47.703358,47.703358 0 0 0 -0.832031,8.69336 47.703358,47.703358 0 0 0 3.81836,18.62305 c 0.124268,-0.73107 0.329481,-1.40275 0.634765,-1.99805 0.523445,-1.01257 1.260393,-1.77615 2.212891,-2.29101 0.952498,-0.52345 2.060849,-0.78516 3.322265,-0.78516 0.780877,0 1.46141,0.0913 2.044922,0.27148 0.592094,0.18021 1.099059,0.43174 1.519532,0.75782 0.420472,0.3175 0.768374,0.7034 1.042968,1.1582 0.326081,0.54061 0.571335,1.15845 0.734375,1.85351 0.171622,0.71223 0.260951,1.57533 0.269532,2.58789 h -8.160157 c 0.0086,1.55318 0.281659,2.69953 0.822266,3.4375 0.549188,0.7294 1.382508,1.09376 2.498047,1.09376 0.652161,0 1.240227,-0.12106 1.763672,-0.36133 0.523445,-0.24885 1.089963,-0.68099 1.699219,-1.29883 l 1.042968,1.13281 c -0.875268,0.92676 -1.743456,1.5826 -2.601562,1.96875 -0.858107,0.38615 -1.843446,0.58008 -2.958985,0.58008 -0.572901,0 -1.10187,-0.0512 -1.59375,-0.14063 a 47.703358,47.703358 0 0 0 39.591804,21.11329 47.703358,47.703358 0 0 0 39.58789,-21.10547 c -0.62602,-0.10766 -1.20357,-0.27891 -1.72071,-0.52539 -0.90959,-0.44622 -1.62185,-1.15339 -2.13671,-2.12305 -0.51487,-0.97824 -0.77344,-2.21902 -0.77344,-3.7207 0,-1.14987 0.15906,-2.14343 0.47656,-2.98438 0.3175,-0.84094 0.75982,-1.53675 1.32617,-2.08594 0.56635,-0.54918 1.23866,-0.9535 2.01953,-1.21093 0.78946,-0.26602 1.64433,-0.39844 2.5625,-0.39844 1.68469,0 3.02645,0.3689 4.03907,1.0918 a 47.703358,47.703358 0 0 0 2.32226,-14.64063 47.703358,47.703358 0 0 0 -0.44922,-6.50391 c -0.63737,0.18144 -1.34138,0.28321 -2.1289,0.28321 -0.88385,0 -1.75009,-0.11283 -2.59961,-0.33594 v 2.43359 c 0,0.64358 0.0349,1.09727 0.10351,1.36328 0.0686,0.26602 0.18776,0.47641 0.35938,0.63086 0.1802,0.15446 0.49519,0.28375 0.9414,0.38672 v 0.84961 h -6.41015 v -0.84961 c 0.40331,-0.12013 0.68148,-0.25256 0.83594,-0.39843 0.16304,-0.14588 0.279,-0.35313 0.34765,-0.61915 0.0686,-0.25743 0.10352,-0.71112 0.10352,-1.36328 v -11.26367 c 0,-0.60925 -0.0102,-1.04139 -0.0274,-1.29883 -0.009,-0.25743 -0.0383,-0.47604 -0.0898,-0.65625 -0.0429,-0.1802 -0.10755,-0.3279 -0.19336,-0.43945 -0.0858,-0.12013 -0.21314,-0.22278 -0.38477,-0.30859 -0.16304,-0.0858 -0.40829,-0.16182 -0.73437,-0.23047 v -0.875 l 3.56641,-0.10352 h 1.58203 l -0.19336,1.86524 0.15429,0.0391 c 0.50781,-0.49009 0.99018,-0.87666 1.44922,-1.17578 A 47.703358,47.703358 0 0 0 120.0039,229.57238 Z m -5.76758,22.84375 h 1.60742 v 14.67382 c 0,0.65216 0.0102,1.1274 0.0273,1.42774 0.0258,0.30034 0.0771,0.5405 0.1543,0.7207 0.0772,0.1802 0.20143,0.33104 0.37305,0.45117 0.17162,0.11156 0.45802,0.21107 0.86133,0.29688 v 0.86133 l -3.5,0.11523 h -1.5586 l 0.11719,-1.85351 -0.19336,-0.0117 c -0.61784,0.62641 -1.27055,1.10988 -1.95703,1.45312 -0.67791,0.33466 -1.33061,0.50391 -1.95703,0.50391 -1.56176,0 -2.7328,-0.53674 -3.51367,-1.60938 -0.7723,-1.07263 -1.15821,-2.68599 -1.15821,-4.83984 0,-1.45878 0.23703,-2.68624 0.70899,-3.68164 0.47196,-1.00399 1.1709,-1.76248 2.09765,-2.27735 0.93534,-0.51486 2.05819,-0.77343 3.3711,-0.77343 0.37756,0 0.74701,0.0266 1.10742,0.0781 0.36898,0.0429 0.80308,0.13224 1.30078,0.26953 v -1.17187 c 0,-0.91818 -0.0133,-1.56579 -0.0391,-1.94336 -0.0257,-0.38615 -0.0822,-0.67764 -0.16797,-0.875 -0.0772,-0.20595 -0.19634,-0.36501 -0.35938,-0.47656 -0.16304,-0.11156 -0.45961,-0.20911 -0.88867,-0.29493 v -0.86328 z m -17.724611,5.45703 c 0.703647,0 1.286622,0.10265 1.75,0.30859 0.463377,0.19737 0.835965,0.48885 1.11914,0.875 0.291757,0.38615 0.499006,0.85825 0.619141,1.41602 0.12872,0.55777 0.19336,1.20538 0.19336,1.94336 v 4.71093 c 0,0.37757 0.003,0.7337 0.0117,1.06836 0.0172,0.32608 0.052,0.58779 0.10351,0.78516 0.0515,0.19736 0.11927,0.36152 0.20508,0.49023 0.0944,0.12014 0.22368,0.22279 0.38672,0.3086 0.16304,0.0858 0.36011,0.15868 0.5918,0.21875 v 0.84961 H 95.25 v -0.84961 c 0.394729,-0.0944 0.66976,-0.23191 0.824219,-0.41211 0.154459,-0.18879 0.257107,-0.43718 0.308593,-0.7461 0.06007,-0.3175 0.08984,-0.88401 0.08984,-1.69922 v -3.4375 c 0,-0.60925 -0.01332,-1.10603 -0.03906,-1.49218 -0.02574,-0.39473 -0.06884,-0.716 -0.128906,-0.96485 -0.05149,-0.24885 -0.127496,-0.4561 -0.230469,-0.61914 -0.09439,-0.17162 -0.202131,-0.30718 -0.322266,-0.41015 -0.120135,-0.11156 -0.25765,-0.19461 -0.412109,-0.2461 -0.154459,-0.0515 -0.351527,-0.0762 -0.591797,-0.0762 -0.326081,0 -0.665755,0.10265 -1.017578,0.30859 -0.351824,0.19737 -0.646449,0.47554 -0.886719,0.83594 -0.24027,0.35183 -0.361328,0.7295 -0.361328,1.13282 v 4.95507 c 0,0.8152 0.02664,1.38172 0.07813,1.69922 0.05149,0.3175 0.154134,0.57098 0.308594,0.75977 0.16304,0.1802 0.446299,0.31772 0.849609,0.41211 v 0.84961 h -6.216797 v -0.84961 c 0.411891,-0.11156 0.69515,-0.2573 0.849609,-0.4375 0.163041,-0.18021 0.268827,-0.42546 0.320313,-0.73438 0.06007,-0.30892 0.08984,-0.87034 0.08984,-1.68555 v -5.29101 c 0,-0.635 -0.01137,-1.10201 -0.03711,-1.40234 -0.01716,-0.30892 -0.06849,-0.55418 -0.154297,-0.73438 -0.07723,-0.18878 -0.203378,-0.33766 -0.375,-0.44922 -0.16304,-0.12013 -0.449436,-0.22278 -0.861328,-0.30859 v -0.875 l 3.527344,-0.10352 h 1.621094 l -0.19336,1.85352 0.154297,0.0391 c 0.532026,-0.47196 1.000987,-0.84141 1.404297,-1.10742 0.40331,-0.2746 0.822132,-0.49007 1.259766,-0.64453 0.446215,-0.16304 0.915176,-0.24414 1.404297,-0.24414 z m 28.265621,0 c 0.62642,0 1.23917,0.0266 1.83985,0.0781 0.60067,0.0515 1.37758,0.16236 2.33008,0.33399 v 3 h -1.69922 c -0.19737,-0.54919 -0.41598,-0.97506 -0.65625,-1.27539 -0.23169,-0.30034 -0.48831,-0.50564 -0.77149,-0.61719 -0.28317,-0.12014 -0.62285,-0.18164 -1.01758,-0.18164 -0.56635,0 -1.0169,0.12928 -1.35156,0.38672 -0.33466,0.25743 -0.50195,0.61865 -0.50195,1.08203 0,0.32608 0.0596,0.60425 0.17969,0.83593 0.12013,0.23169 0.33561,0.45854 0.64453,0.68165 0.30892,0.21452 0.90521,0.50796 1.78906,0.87695 0.80662,0.33466 1.46247,0.6857 1.96875,1.05469 0.50628,0.3604 0.89219,0.78118 1.1582,1.26171 0.26602,0.47196 0.40039,1.02516 0.40039,1.66016 0,0.69507 -0.12928,1.29645 -0.38672,1.80274 -0.25743,0.4977 -0.61865,0.90829 -1.08203,1.23437 -0.46337,0.32608 -1.01971,0.57134 -1.67187,0.73438 -0.64358,0.15445 -1.35584,0.23242 -2.13672,0.23242 -1.41588,0 -2.99123,-0.20216 -4.72461,-0.60547 v -3.07617 h 1.72461 c 0.20595,0.78087 0.5323,1.36894 0.97852,1.76367 0.44621,0.38615 1.04251,0.57812 1.78906,0.57812 0.64358,0 1.129,-0.14574 1.45508,-0.4375 0.33466,-0.29175 0.50195,-0.71566 0.50195,-1.27343 0,-0.35183 -0.078,-0.6535 -0.23242,-0.90235 -0.14588,-0.24885 -0.39427,-0.48392 -0.7461,-0.70703 -0.34324,-0.23169 -0.93444,-0.5314 -1.77539,-0.90039 -0.47196,-0.20594 -0.91937,-0.43474 -1.33984,-0.68359 -0.41189,-0.24885 -0.77116,-0.52702 -1.08008,-0.83594 -0.30892,-0.3175 -0.55417,-0.67049 -0.73437,-1.05664 -0.18021,-0.38615 -0.27149,-0.81515 -0.27149,-1.28711 0,-0.7723 0.22371,-1.44146 0.66992,-2.00781 0.44622,-0.56635 1.08247,-0.99849 1.90625,-1.29883 0.83237,-0.30034 1.7797,-0.45117 2.84375,-0.45117 z m 13.10352,0 c 0.69507,0 1.38578,0.0513 2.07226,0.15429 0.69507,0.0944 1.32623,0.22682 1.89258,0.39844 v 3.10352 h -2.54882 c -0.12872,-0.80662 -0.32265,-1.39469 -0.58008,-1.76368 -0.25744,-0.36898 -0.62689,-0.55468 -1.10742,-0.55468 -0.3175,0 -0.62036,0.0831 -0.91211,0.24609 -0.28318,0.15446 -0.53666,0.42754 -0.75977,0.82227 -0.21453,0.38614 -0.38691,0.90957 -0.51562,1.57031 -0.12872,0.65216 -0.19336,1.48039 -0.19336,2.48437 0,1.00399 0.0944,1.85377 0.2832,2.54883 0.18878,0.68649 0.49359,1.21814 0.91406,1.59571 0.42047,0.36898 0.97367,0.55468 1.66016,0.55468 0.4977,0 0.96666,-0.10774 1.40429,-0.32226 0.44622,-0.21453 0.96964,-0.60044 1.57032,-1.15821 l 0.99023,1.19727 c -0.84094,0.82378 -1.65585,1.41499 -2.44531,1.77539 -0.78088,0.35182 -1.63379,0.5293 -2.56055,0.5293 -1.86209,0 -3.28348,-0.54497 -4.26172,-1.63477 -0.97824,-1.09837 -1.46679,-2.69019 -1.46679,-4.77539 0,-1.40729 0.26485,-2.62143 0.79687,-3.64258 0.54061,-1.02972 1.31438,-1.80663 2.31836,-2.33007 1.00399,-0.53203 2.15348,-0.79883 3.44922,-0.79883 z m 12.26562,0 c 1.03831,0 1.86654,0.13751 2.48438,0.41211 0.62642,0.27459 1.09538,0.72005 1.4043,1.33789 0.30891,0.61783 0.46289,1.4727 0.46289,2.5625 v 5.01953 c 0,0.56635 0.0133,1.00358 0.0391,1.3125 0.0257,0.30892 0.0637,0.54085 0.11523,0.69531 0.0601,0.14588 0.13294,0.26694 0.21875,0.36133 0.0858,0.0858 0.18846,0.15868 0.3086,0.21875 0.12871,0.0515 0.36574,0.11927 0.70898,0.20508 v 0.84961 h -4.78906 l 0.11523,-1.68555 -0.1914,-0.0644 c -0.70365,0.68648 -1.39123,1.18327 -2.06055,1.49218 -0.66074,0.30892 -1.36477,0.46485 -2.11133,0.46485 -0.73797,0 -1.3805,-0.13438 -1.92968,-0.40039 -0.54061,-0.2746 -0.95316,-0.65228 -1.23633,-1.13282 -0.2746,-0.48054 -0.41211,-1.03373 -0.41211,-1.66015 0,-1.26142 0.61784,-2.25185 1.85351,-2.97266 1.24426,-0.72939 3.12756,-1.18817 5.65039,-1.37695 v -1.22266 c 0,-0.79804 -0.0893,-1.41274 -0.26953,-1.84179 -0.1802,-0.43764 -0.41213,-0.74245 -0.69531,-0.91407 -0.28318,-0.1802 -0.62285,-0.26953 -1.01758,-0.26953 -0.39473,0 -0.73754,0.0678 -1.0293,0.20508 -0.28317,0.1373 -0.53979,0.39901 -0.77148,0.78516 -0.23169,0.37756 -0.40407,0.90608 -0.51562,1.58398 h -2.43164 v -2.34375 c 0.78945,-0.35182 1.4453,-0.62176 1.96874,-0.81055 0.52345,-0.18878 1.03864,-0.34275 1.54493,-0.46289 0.51486,-0.12871 0.97364,-0.21804 1.37695,-0.26953 0.40331,-0.0515 0.80567,-0.0781 1.20898,-0.0781 z m -40.17187,1.33789 c -0.53203,0 -0.99081,0.19393 -1.37695,0.58008 -0.37757,0.37756 -0.66592,0.92762 -0.86328,1.64843 -0.18879,0.72081 -0.28126,1.57373 -0.28126,2.56055 0,1.69047 0.18375,2.95279 0.55274,3.78516 0.36899,0.83236 0.94373,1.24804 1.72461,1.24804 0.36898,0 0.73334,-0.0913 1.09375,-0.27148 0.36898,-0.18878 0.67888,-0.47204 0.92773,-0.84961 0.24885,-0.38615 0.37305,-0.82652 0.37305,-1.32422 v -4.28711 c 0,-1.04689 -0.17552,-1.82379 -0.52734,-2.33008 -0.35183,-0.50628 -0.89366,-0.75976 -1.62305,-0.75976 z m -31.392579,0.0527 c -0.394729,0 -0.739494,0.0678 -1.03125,0.20508 -0.283175,0.1373 -0.539795,0.39901 -0.771484,0.78516 -0.231689,0.37756 -0.404071,0.90608 -0.515625,1.58398 h -1.361328 a 47.703358,47.703358 0 0 0 -1.214844,4.10547 c 0.301148,-0.39893 0.704761,-0.75144 1.224609,-1.05469 1.244255,-0.72939 3.127558,-1.18817 5.650391,-1.37695 v -1.22266 c 0,-0.79804 -0.08933,-1.41274 -0.269531,-1.84179 -0.180203,-0.43764 -0.412138,-0.74245 -0.695313,-0.91407 -0.283175,-0.1802 -0.620896,-0.26953 -1.015625,-0.26953 z m 85.865239,0.68945 c -0.22983,0.0471 -0.45812,0.11677 -0.68165,0.23633 -0.3604,0.19737 -0.65698,0.48063 -0.88867,0.84961 -0.23169,0.36041 -0.34765,0.76786 -0.34765,1.22266 v 4.36328 c 0,1.05547 0.18061,1.83747 0.54101,2.34375 0.36899,0.4977 0.93551,0.74609 1.69922,0.74609 0.78946,0 1.39084,-0.41254 1.80274,-1.23632 0.0807,-0.15971 0.14574,-0.3437 0.21093,-0.5293 a 47.703358,47.703358 0 0 0 -2.33593,-7.9961 z m -83.871098,4.81836 c -1.330065,0.0343 -2.317358,0.28467 -2.960938,0.74805 -0.634998,0.46338 -0.951172,1.14077 -0.951172,2.0332 0,0.53203 0.145744,0.93949 0.4375,1.22266 0.291757,0.27459 0.694121,0.41211 1.208985,0.41211 0.394729,0 0.76927,-0.10265 1.121094,-0.30859 0.351823,-0.21453 0.629992,-0.49779 0.835937,-0.84961 0.205946,-0.35183 0.308594,-0.72637 0.308594,-1.1211 z m 70.214848,0 c -1.33007,0.0343 -2.31736,0.28467 -2.96094,0.74805 -0.635,0.46338 -0.95313,1.14077 -0.95313,2.0332 0,0.53203 0.1477,0.93949 0.43946,1.22266 0.29175,0.27459 0.69412,0.41211 1.20898,0.41211 0.39473,0 0.76732,-0.10265 1.11914,-0.30859 0.35182,-0.21453 0.63195,-0.49779 0.83789,-0.84961 0.20595,-0.35183 0.3086,-0.72637 0.3086,-1.1211 z m -3.53907,23.04102 h 3.07617 v 3.21875 h 3.66797 v 1.60742 h -3.66797 v 5.80664 c 0,0.96966 0.0431,1.68506 0.12891,2.14844 0.0944,0.46338 0.24837,0.80619 0.46289,1.0293 0.21453,0.21452 0.47938,0.32226 0.79688,0.32226 0.24027,0 0.45574,-0.0215 0.64453,-0.0645 0.18878,-0.0429 0.38585,-0.11892 0.59179,-0.23047 0.21453,-0.11155 0.43824,-0.27062 0.66993,-0.47656 l 0.81054,1.08008 c -0.75513,0.64358 -1.44075,1.09922 -2.05859,1.36523 -0.61784,0.25743 -1.27055,0.38672 -1.95703,0.38672 -1.27858,0 -2.2361,-0.34477 -2.87109,-1.03125 -0.62642,-0.69507 -0.93946,-1.74191 -0.93946,-3.14063 v -7.19531 h -1.60937 v -0.88672 c 0.52344,-0.0858 0.90935,-0.21509 1.1582,-0.38672 0.24885,-0.17162 0.44278,-0.39846 0.58008,-0.68164 0.1373,-0.29175 0.24503,-0.66943 0.32226,-1.13281 0.0858,-0.46338 0.15046,-1.04321 0.19336,-1.73828 z m -48.333981,3.01172 c 0.703647,0 1.286621,0.10265 1.750001,0.30859 0.46338,0.19737 0.83792,0.48885 1.12109,0.875 0.29176,0.38615 0.49706,0.85825 0.61719,1.41602 0.12872,0.55777 0.19336,1.20734 0.19336,1.94531 v 4.71094 c 0,0.37757 0.005,0.7337 0.0137,1.06836 0.0172,0.32608 0.0501,0.58779 0.10156,0.78515 0.0515,0.19737 0.12122,0.35957 0.20704,0.48829 0.0944,0.12013 0.22172,0.22278 0.38476,0.30859 0.16304,0.0858 0.36206,0.15868 0.59375,0.21875 v 0.84961 h -6.24414 v -0.84961 c 0.394729,-0.0944 0.66976,-0.23191 0.824219,-0.41211 0.154459,-0.18878 0.257107,-0.43718 0.308593,-0.74609 0.06007,-0.3175 0.08984,-0.88402 0.08984,-1.69922 v -3.43555 c 0,-0.60926 -0.01137,-1.10799 -0.03711,-1.49414 -0.02574,-0.39473 -0.06884,-0.71599 -0.128906,-0.96484 -0.05149,-0.24886 -0.129449,-0.4561 -0.232422,-0.61915 -0.09439,-0.17162 -0.202131,-0.30718 -0.322266,-0.41015 -0.120135,-0.11156 -0.25765,-0.19461 -0.412109,-0.24609 -0.154459,-0.0515 -0.351527,-0.0762 -0.591797,-0.0762 -0.326081,0 -0.663801,0.10265 -1.015625,0.3086 -0.351824,0.19736 -0.648402,0.47553 -0.888672,0.83593 -0.24027,0.35183 -0.361328,0.72951 -0.361328,1.13282 v 4.95703 c 0,0.8152 0.02664,1.37976 0.07813,1.69726 0.05149,0.3175 0.154134,0.57099 0.308594,0.75977 0.16304,0.1802 0.446299,0.31772 0.849609,0.41211 v 0.84961 h -6.216797 v -0.84961 c 0.411891,-0.11156 0.69515,-0.2573 0.849609,-0.4375 0.163041,-0.1802 0.27078,-0.42546 0.322266,-0.73438 0.06007,-0.30891 0.08984,-0.87034 0.08984,-1.68554 v -5.28907 c 0,-0.63499 -0.01332,-1.10396 -0.03906,-1.40429 -0.01716,-0.30892 -0.06849,-0.55222 -0.154297,-0.73242 -0.07723,-0.18879 -0.201425,-0.33962 -0.373046,-0.45118 -0.163041,-0.12013 -0.45139,-0.22278 -0.863282,-0.30859 v -0.875 l 3.527344,-0.10352 h 1.621094 l -0.191406,1.85352 0.154296,0.0391 c 0.532027,-0.47196 0.999034,-0.84141 1.402344,-1.10742 0.40331,-0.27459 0.824085,-0.49007 1.261719,-0.64453 0.446215,-0.16304 0.913223,-0.24414 1.402344,-0.24414 z m 13.271481,0 c 0.78088,0 1.46337,0.0913 2.04688,0.27148 0.59209,0.18021 1.0971,0.43174 1.51758,0.75782 0.42047,0.3175 0.76837,0.7034 1.04297,1.1582 0.32608,0.54061 0.57133,1.15845 0.73437,1.85351 0.17162,0.71223 0.26095,1.57533 0.26953,2.58789 h -8.16016 c 0.009,1.55318 0.28362,2.69953 0.82422,3.4375 0.54919,0.7294 1.38056,1.09376 2.4961,1.09376 0.65216,0 1.24022,-0.12106 1.76367,-0.36133 0.52344,-0.24885 1.08996,-0.68099 1.69922,-1.29883 l 1.04297,1.13281 c -0.87527,0.92676 -1.74346,1.5826 -2.60157,1.96875 -0.8581,0.38615 -1.84344,0.58008 -2.95898,0.58008 -1.99939,0 -3.50501,-0.54497 -4.51758,-1.63477 -1.00398,-1.09837 -1.50781,-2.72506 -1.50781,-4.8789 0,-1.39014 0.25857,-2.58781 0.77344,-3.5918 0.52344,-1.01257 1.26039,-1.77615 2.21289,-2.29101 0.9525,-0.52345 2.06085,-0.78516 3.32226,-0.78516 z m 16.66797,0 c 0.52345,0 1.07351,0.0564 1.64844,0.16797 v 3.55273 h -2.33008 c -0.14588,-0.4977 -0.33981,-0.88047 -0.58008,-1.14648 C 127.36401,293.13242 127.05098,293 126.65625,293 c -0.18878,0 -0.39917,0.0596 -0.63086,0.17969 -0.22311,0.11155 -0.43349,0.27571 -0.63086,0.49023 -0.18878,0.20595 -0.3263,0.41947 -0.41211,0.64258 -0.0772,0.21453 -0.12855,0.43314 -0.1543,0.65625 -0.0257,0.22311 -0.0371,0.55769 -0.0371,1.00391 v 4.10742 c 0,0.8152 0.0298,1.38486 0.0898,1.71094 0.0601,0.32608 0.17917,0.5827 0.35937,0.77148 0.18021,0.1802 0.48501,0.30949 0.91407,0.38672 v 0.84961 h -6.34571 v -0.84961 c 0.41189,-0.11156 0.69515,-0.2573 0.84961,-0.4375 0.16304,-0.1802 0.27078,-0.42546 0.32227,-0.73438 0.0601,-0.30891 0.0898,-0.87034 0.0898,-1.68554 v -5.28907 c 0,-0.63499 -0.0133,-1.10396 -0.0391,-1.40429 -0.0172,-0.30892 -0.0685,-0.55222 -0.1543,-0.73242 -0.0772,-0.18879 -0.20142,-0.33962 -0.37304,-0.45118 -0.16304,-0.12013 -0.45139,-0.22278 -0.86329,-0.30859 v -0.875 l 3.52735,-0.10352 h 1.62305 l -0.18164,1.94336 0.16796,0.0391 c 0.62642,-0.73798 1.2709,-1.26963 1.93164,-1.59571 0.66075,-0.32608 1.37615,-0.49023 2.14844,-0.49023 z m 9.20313,0 c 1.03831,0 1.86654,0.13751 2.48437,0.41211 0.62642,0.27459 1.09343,0.72005 1.40235,1.33789 0.30891,0.61784 0.46484,1.4727 0.46484,2.5625 v 5.01953 c 0,0.56635 0.0114,1.00358 0.0371,1.3125 0.0257,0.30892 0.0657,0.54085 0.11719,0.69531 0.0601,0.14588 0.13294,0.26694 0.21875,0.36133 0.0858,0.0858 0.18846,0.15868 0.30859,0.21875 0.12872,0.0515 0.36379,0.11927 0.70703,0.20508 v 0.84961 h -4.78711 l 0.11524,-1.68555 -0.19336,-0.0644 c -0.70365,0.68648 -1.38927,1.18327 -2.0586,1.49219 -0.66074,0.30891 -1.36477,0.46484 -2.11133,0.46484 -0.73797,0 -1.38245,-0.13438 -1.93164,-0.40039 -0.5406,-0.2746 -0.9512,-0.65227 -1.23437,-1.13281 -0.27459,-0.48054 -0.41211,-1.03374 -0.41211,-1.66016 0,-1.26142 0.61784,-2.25185 1.85352,-2.97266 1.24425,-0.72939 3.12755,-1.18817 5.65039,-1.37695 v -1.22266 c 0,-0.79803 -0.0893,-1.41274 -0.26953,-1.84179 -0.18021,-0.43764 -0.41214,-0.74244 -0.69532,-0.91406 -0.28317,-0.18021 -0.62285,-0.26954 -1.01758,-0.26954 -0.39472,0 -0.73754,0.0678 -1.02929,0.20508 -0.28318,0.1373 -0.5398,0.39901 -0.77149,0.78516 -0.23169,0.37757 -0.40407,0.90608 -0.51562,1.58398 h -2.4336 v -2.34179 c 0.78946,-0.35183 1.44726,-0.62372 1.97071,-0.8125 0.52344,-0.18879 1.03668,-0.34276 1.54297,-0.46289 0.51486,-0.12872 0.97559,-0.21805 1.3789,-0.26954 0.40331,-0.0515 0.80568,-0.0781 1.20899,-0.0781 z m -55.978519,1.33984 c -0.660742,0 -1.187302,0.33459 -1.582031,1.00391 -0.386148,0.66932 -0.618083,1.63311 -0.695312,2.89453 h 4.285156 c -0.03432,-1.3129 -0.204754,-2.29001 -0.513672,-2.93359 -0.308918,-0.64358 -0.807656,-0.96485 -1.494141,-0.96485 z m 29.900389,0 c -0.66074,0 -1.1873,0.33459 -1.58203,1.00391 -0.38615,0.66932 -0.61808,1.63311 -0.69531,2.89453 h 4.28515 c -0.0343,-1.3129 -0.20475,-2.29001 -0.51367,-2.93359 -0.30892,-0.64358 -0.80765,-0.96485 -1.49414,-0.96485 z m 49.3125,0 c -0.58351,0 -1.05247,0.18375 -1.4043,0.55274 -0.35182,0.36898 -0.60844,0.92218 -0.77148,1.66015 -0.16304,0.73797 -0.24414,1.68726 -0.24414,2.84571 0,1.81918 0.20021,3.1822 0.60352,4.09179 0.25407,0.55579 0.59701,0.91986 1.00781,1.13282 a 47.703358,47.703358 0 0 0 3.18945,-6.0625 c -0.0769,-1.21181 -0.27054,-2.16019 -0.58008,-2.84375 -0.40331,-0.91818 -1.00274,-1.37696 -1.80078,-1.37696 z m -22.58984,5.56055 c -1.33007,0.0343 -2.31736,0.28272 -2.96094,0.74609 -0.635,0.46338 -0.95312,1.14078 -0.95312,2.03321 0,0.53202 0.14574,0.93948 0.4375,1.22265 0.29175,0.2746 0.69607,0.41211 1.21093,0.41211 0.39473,0 0.76732,-0.10265 1.11914,-0.30859 0.35183,-0.21453 0.63,-0.49779 0.83594,-0.84961 0.20595,-0.35182 0.31055,-0.72441 0.31055,-1.11914 z" />
    <circle
       style="fill:#f5ff00;fill-opacity:1;stroke:#ffffff;stroke-width:0.146;stroke-linecap:round;stroke-linejoin:bevel;stroke-miterlimit:4;stroke-dasharray:none;stroke-opacity:1;paint-order:markers fill stroke;stop-color:#000000"
       id="path15702"
       cx="94.965462"
       cy="76.392746"
       r="19.093496" />
    <path
       style="color:#000000;fill:#50a867;fill-opacity:1;stroke:none;stroke-width:2.09032;stroke-linecap:round;stroke-linejoin:bevel;stroke-opacity:1;-inkscape-stroke:none;paint-order:markers fill stroke"
       d="m 142.41798,130.19882 -49.564361,-0.0725 c 0,0 16.672461,-60.180981 24.826961,-60.169049 8.1545,0.01192 24.7374,60.241559 24.7374,60.241559 z"
       id="path3947"
       sodipodi:nodetypes="cczc" />
    <path
       style="color:#000000;fill:#7fdd98;fill-opacity:1;stroke:none;stroke-width:1.765;stroke-linecap:round;stroke-linejoin:bevel;stroke-opacity:1;-inkscape-stroke:none;paint-order:markers fill stroke"
       d="m 122.66846,130.28598 -49.564355,-0.0517 c 0,0 16.672449,-42.906652 24.82695,-42.898145 8.154505,0.0085 24.737405,42.949845 24.737405,42.949845 z"
       id="path2058"
       sodipodi:nodetypes="cczc" />
    <text
       xml:space="preserve"
       style="font-weight:bold;font-size:10.5916px;line-height:1.25;font-family:Cambria;-inkscape-font-specification:'Cambria Bold';font-variant-ligatures:none;letter-spacing:0px;word-spacing:0px;display:none;fill:#3f411e;fill-opacity:1;stroke:#ffffff;stroke-width:0.283975;stroke-miterlimit:4;stroke-dasharray:none;stroke-opacity:1"
       x="69.979591"
       y="73.836662"
       id="text8805"><tspan
         sodipodi:role="line"
         id="tspan8801"
         style="fill:#3f411e;fill-opacity:1;stroke:#ffffff;stroke-width:0.283975;stroke-miterlimit:4;stroke-dasharray:none;stroke-opacity:1"
         x="0"
         y="0">Landscape </tspan><tspan
         sodipodi:role="line"
         style="fill:#3f411e;fill-opacity:1;stroke:#ffffff;stroke-width:0.283975;stroke-miterlimit:4;stroke-dasharray:none;stroke-opacity:1"
         x="0"
         y="0"
         id="tspan8803">Generator</tspan></text>
  </g>
</svg>
